<svg viewBox="0 0 100 100" xmlns="http://www.w3.org/2000/svg">
  <g fill="#c9a84c">
    <!-- Left branch -->
    <path d="M45 95c-3-20-10-35-30-50 15 5 28 20 32 50z" opacity="0.9"/>
    <path d="M40 85c-2-15-8-28-25-40 12 4 23 17 27 40z" opacity="0.8"/>
    <path d="M37 75c-2-12-7-22-22-32 10 3 19 14 24 32z" opacity="0.7"/>
    <path d="M35 65c-1-10-5-18-18-25 8 3 15 11 19 25z" opacity="0.6"/>
    <path d="M33 55c-1-8-4-14-15-20 7 2 13 9 16 20z" opacity="0.5"/>

    <!-- Right branch -->
    <path d="M55 95c3-20 10-35 30-50-15 5-28 20-32 50z" opacity="0.9"/>
    <path d="M60 85c2-15 8-28 25-40-12 4-23 17-27 40z" opacity="0.8"/>
    <path d="M63 75c2-12 7-22 22-32-10 3-19 14-24 32z" opacity="0.7"/>
    <path d="M65 65c1-10 5-18 18-25-8 3-15 11-19 25z" opacity="0.6"/>
    <path d="M67 55c1-8 4-14 15-20-7 2-13 9-16 20z" opacity="0.5"/>

    <!-- Top meeting point -->
    <circle cx="50" cy="45" r="4"/>
  </g>
</svg>
